<svg width="25" height="27" viewBox="0 0 25 27" fill="none" xmlns="http://www.w3.org/2000/svg">
<path d="M12.5 0.655396C5.6 0.655396 0 6.36026 0 13.3895C0 20.4187 5.6 26.1235 12.5 26.1235C19.4 26.1235 25 20.4187 25 13.3895C25 6.36026 19.4 0.655396 12.5 0.655396ZM12.5 5.74902C14.9125 5.74902 16.875 7.74827 16.875 10.2059C16.875 12.6636 14.9125 14.6629 12.5 14.6629C10.0875 14.6629 8.125 12.6636 8.125 10.2059C8.125 7.74827 10.0875 5.74902 12.5 5.74902ZM12.5 23.5767C9.9625 23.5767 6.9625 22.5325 4.825 19.9093C6.9375 18.2284 9.6 17.2097 12.5 17.2097C15.4 17.2097 18.0625 18.2284 20.175 19.9093C18.0375 22.5325 15.0375 23.5767 12.5 23.5767Z" fill="#9BFBEA"/>
</svg>
