<svg width="22" height="27" viewBox="0 0 22 27" fill="none" xmlns="http://www.w3.org/2000/svg">
<path d="M12.5 2.24715V3.13655C16.04 3.70908 18.75 6.83341 18.75 10.6039V12.2653C18.75 14.5236 19.5068 16.7172 20.8887 18.4831L21.6162 19.4083C21.8994 19.7664 21.9531 20.2589 21.7578 20.6718C21.5625 21.0846 21.1524 21.3483 20.7031 21.3483H1.17188C0.7212 21.3483 0.3108 21.0846 0.115683 20.6718C-0.0794832 20.2589 -0.0246004 19.7664 0.256845 19.4083L0.984872 18.4831C2.37013 16.7172 3.12501 14.5236 3.12501 12.2653V10.6039C3.12501 6.83341 5.83497 3.70908 9.37501 3.13655V2.24715C9.37501 1.3682 10.0733 0.655396 10.9375 0.655396C11.8018 0.655396 12.5 1.3682 12.5 2.24715ZM10.5469 5.43067C7.74415 5.43067 5.46876 7.74867 5.46876 10.6039V12.2653C5.46876 14.6479 4.79102 16.9709 3.53077 18.9606H18.3447C17.085 16.9709 16.4063 14.6479 16.4063 12.2653V10.6039C16.4063 7.74867 14.1309 5.43067 11.3281 5.43067H10.5469ZM14.0625 22.94C14.0625 23.7409 13.7354 24.5964 13.1494 25.1933C12.5635 25.7903 11.7236 26.1235 10.9375 26.1235C10.1074 26.1235 9.31153 25.7903 8.72559 25.1933C8.13966 24.5964 7.81251 23.7409 7.81251 22.94H14.0625Z" fill="#9BFBEA"/>
</svg>
