<svg width="36" height="41" viewBox="0 0 36 41" fill="none" xmlns="http://www.w3.org/2000/svg">
<path d="M16.932 32.4798C16.266 33.2916 15.0751 33.2916 14.3386 32.4798L9.32398 27.3862C8.5953 26.7097 8.5953 25.5 9.32398 24.7518C10.0605 24.0117 11.2515 24.0117 11.9175 24.7518L15.6706 28.5004L23.1141 20.9316C23.8506 20.1915 25.0415 20.1915 25.7075 20.9316C26.5067 21.6798 26.5067 22.8895 25.7075 23.566L16.932 32.4798ZM10.0292 0C11.0712 0 11.9096 0.85557 11.9096 1.91011V5.09363H23.1924V1.91011C23.1924 0.85557 24.0308 0 25.0729 0C26.115 0 26.9534 0.85557 26.9534 1.91011V5.09363H30.0875C32.8533 5.09363 35.102 7.37382 35.102 10.1873V35.6554C35.102 38.4648 32.8533 40.749 30.0875 40.749H5.01458C2.24481 40.749 0 38.4648 0 35.6554V10.1873C0 7.37382 2.24481 5.09363 5.01458 5.09363H8.14869V1.91011C8.14869 0.85557 8.98706 0 10.0292 0ZM31.3411 15.2809H3.76093V35.6554C3.76093 36.3558 4.32194 36.9288 5.01458 36.9288H30.0875C30.777 36.9288 31.3411 36.3558 31.3411 35.6554V15.2809Z" fill="#FFAF87"/>
</svg>
