<svg width="50" height="41" viewBox="0 0 50 41" fill="none" xmlns="http://www.w3.org/2000/svg">
<path d="M16.1707 0C25.1035 0 32.3415 6.27153 32.3415 14.0075C32.3415 21.7434 25.1035 28.015 16.1707 28.015C14.7169 28.015 13.3098 27.8319 11.9648 27.5215C9.58582 29.0337 6.15188 30.5618 1.93971 30.5618C1.16383 30.5618 0.461021 30.0922 0.156887 29.36C-0.147402 28.6278 -0.000575308 27.7841 0.523916 27.2111C0.564421 27.1793 2.28412 25.2612 3.55523 22.7542C1.33564 20.3586 0 17.3183 0 14.0075C0 6.27153 7.24029 0 16.1707 0ZM12.7966 23.7252C13.9317 24.0594 15.0668 24.1947 16.1707 24.1947C23.0277 24.1947 28.6098 19.6264 28.6098 14.0075C28.6098 8.38857 23.0277 3.82022 16.1707 3.82022C9.31372 3.82022 3.73171 8.38857 3.73171 14.0075C3.73171 16.809 5.10855 18.8783 6.26383 20.1278L8.09314 22.1095L6.86556 24.521C6.58802 24.9986 6.27627 25.6194 5.9513 26.1446C7.32814 25.7387 8.68399 25.11 10.0056 24.2027L11.304 23.4466L12.7966 23.7252ZM34.3317 10.2032C42.9146 10.5374 49.7561 16.6737 49.7561 24.1947C49.7561 27.5056 48.4189 30.5458 46.2032 32.9414C47.4704 35.4485 49.1886 37.3665 49.2352 37.3984C49.7561 37.9714 49.9038 38.815 49.5306 39.5472C49.2974 40.2794 48.5899 40.749 47.8125 40.749C43.6066 40.749 40.1703 39.2209 37.7913 37.7088C36.4463 38.0192 35.0392 38.2022 33.5854 38.2022C27.2104 38.2022 21.6983 35.0028 19.0628 30.3628C20.4078 30.1797 21.6983 29.8693 22.9267 29.4396C25.1035 32.4002 29.0684 34.382 33.5854 34.382C34.6893 34.382 35.8244 34.2467 36.9594 33.9124L38.4521 33.6339L39.7505 34.3899C41.0721 35.2972 42.4248 35.926 43.8087 36.3319C43.4822 35.8066 43.1712 35.1858 42.8913 34.7083L41.663 32.2968L43.4899 30.315C44.6483 29.0735 46.0244 26.9962 46.0244 24.1947C46.0244 18.9181 41.1032 14.5725 34.7593 14.0552L34.8293 14.0075C34.8293 12.6943 34.6582 11.4209 34.3317 10.2032Z" fill="#FFAF87"/>
</svg>
