<?xml version="1.0" encoding="UTF-8"?>
<svg width="752pt" height="752pt" version="1.1" viewBox="0 0 752 752" xmlns="http://www.w3.org/2000/svg">
 <path d="m476.02 312.86c-47.023 0-88.828 22.105-115.8 56.391v-56.391h10.512c46.492 0 84.203-37.68 84.203-84.188v-42.102h-42.086c-46.496 0-84.203 37.676-84.203 84.184v9.1094c-18.977-18.621-44.953-30.152-73.66-30.152h-52.633v52.602c0 58.113 47.098 105.26 105.23 105.26h21.059v157.86h31.574v-31.574h42.055c81.367 0 147.38-65.934 147.38-147.31v-73.688zm-115.8-42.105c0-29.012 23.613-52.613 52.629-52.613l10.512-0.003906v10.527c0 29.023-23.617 52.621-52.629 52.621h-10.512zm-31.574 105.25h-21.055c-40.613 0-73.664-33.051-73.664-73.688v-21.027h21.055c40.613 0 73.664 33.051 73.664 73.688zm189.43 10.547c0 63.824-51.953 115.74-115.8 115.74h-42.055v-42.121c0-63.824 51.953-115.74 115.8-115.74l42.055 0.003907z"/>
</svg>
