<svg width="26" height="25" viewBox="0 0 26 25" fill="none" xmlns="http://www.w3.org/2000/svg">
<path d="M12.9917 6.09032C9.5098 6.09032 6.70126 8.95208 6.70126 12.5C6.70126 16.0479 9.5098 18.9097 12.9917 18.9097C16.4736 18.9097 19.2822 16.0479 19.2822 12.5C19.2822 8.95208 16.4736 6.09032 12.9917 6.09032ZM12.9917 16.6671C10.7416 16.6671 8.9021 14.7983 8.9021 12.5C8.9021 10.2017 10.7361 8.33287 12.9917 8.33287C15.2473 8.33287 17.0813 10.2017 17.0813 12.5C17.0813 14.7983 15.2418 16.6671 12.9917 16.6671ZM21.0067 5.82813C21.0067 6.65932 20.3498 7.32316 19.5395 7.32316C18.7238 7.32316 18.0723 6.65374 18.0723 5.82813C18.0723 5.00251 18.7292 4.33309 19.5395 4.33309C20.3498 4.33309 21.0067 5.00251 21.0067 5.82813ZM25.173 7.34548C25.0799 5.3428 24.631 3.56884 23.1911 2.10727C21.7568 0.64571 20.0158 0.188274 18.0504 0.0878612C16.0247 -0.0292871 9.95325 -0.0292871 7.9276 0.0878612C5.96765 0.182696 4.22668 0.640132 2.78683 2.1017C1.34698 3.56326 0.903522 5.33722 0.804977 7.3399C0.690008 9.40394 0.690008 15.5905 0.804977 17.6545C0.898047 19.6572 1.34698 21.4312 2.78683 22.8927C4.22668 24.3543 5.96217 24.8117 7.9276 24.9121C9.95325 25.0293 16.0247 25.0293 18.0504 24.9121C20.0158 24.8173 21.7568 24.3599 23.1911 22.8927C24.6255 21.4312 25.0744 19.6572 25.173 17.6545C25.288 15.5905 25.288 9.40952 25.173 7.34548ZM22.5561 19.8692C22.129 20.9626 21.3024 21.8049 20.2238 22.2456C18.6088 22.8983 14.7765 22.7477 12.9917 22.7477C11.207 22.7477 7.36918 22.8927 5.75961 22.2456C4.68656 21.8105 3.85988 20.9681 3.42737 19.8692C2.78683 18.2235 2.93465 14.3186 2.93465 12.5C2.93465 10.6814 2.7923 6.77089 3.42737 5.13082C3.8544 4.03743 4.68108 3.19508 5.75961 2.75438C7.37465 2.1017 11.207 2.25231 12.9917 2.25231C14.7765 2.25231 18.6143 2.10727 20.2238 2.75438C21.2969 3.1895 22.1236 4.03185 22.5561 5.13082C23.1966 6.77647 23.0488 10.6814 23.0488 12.5C23.0488 14.3186 23.1966 18.2291 22.5561 19.8692Z" fill="#90B8A8"/>
</svg>
