<svg width="28" height="41" viewBox="0 0 28 41" fill="none" xmlns="http://www.w3.org/2000/svg">
<path d="M7.62758 36.1596C7.62758 36.6608 7.77172 37.1498 8.04698 37.5676L9.4074 39.6124C9.8241 40.2392 10.7702 40.749 11.5219 40.749H16.4167C17.1658 40.749 18.112 40.2395 18.5287 39.6124L19.8844 37.5684C20.1176 37.2152 20.3089 36.5839 20.3089 36.1596L20.319 33.0395H7.61964L7.62758 36.1596ZM13.9693 0C5.87506 0.025494 0 6.60393 0 13.9369C0 17.4693 1.30486 20.6897 3.45741 23.1539C4.76942 24.6535 6.81799 27.7887 7.60218 30.4328C7.60466 30.4527 7.60963 30.4739 7.6121 30.4951H20.3274C20.3299 30.4739 20.3348 30.454 20.3373 30.4328C21.1211 27.7887 23.1701 24.6535 24.4821 23.1539C26.637 20.7582 27.9387 17.5426 27.9387 13.9369C27.9387 6.27202 21.6842 0.000310417 13.9693 0ZM21.6207 20.7024C20.3778 22.1232 18.8396 24.3876 17.7276 26.7428H10.2183C9.10627 24.3876 7.56805 22.1232 6.32589 20.7032C4.70195 18.8479 3.80982 16.4044 3.80982 13.9369C3.80982 9.01802 7.62758 3.84042 13.8979 3.82052C19.573 3.82052 24.1289 8.38922 24.1289 13.9369C24.1289 16.4044 23.2399 18.8479 21.6207 20.7024ZM12.6994 6.36753C9.19913 6.36753 6.3497 9.22496 6.3497 12.7351C6.3497 13.439 6.91768 14.0086 7.61964 14.0086C8.3216 14.0086 8.88958 13.4355 8.88958 12.7351C8.88958 10.6282 10.5984 8.91455 12.6994 8.91455C13.4014 8.91455 13.9693 8.34561 13.9693 7.64183C13.9693 6.93806 13.3979 6.36753 12.6994 6.36753Z" fill="#FFAF87"/>
</svg>
