<svg width="25" height="26" viewBox="0 0 25 26" fill="none" xmlns="http://www.w3.org/2000/svg">
<path d="M24.5167 0.208426C24.1455 -0.0483026 23.6657 -0.0701116 23.2732 0.155497L0.592389 13.2995C0.204502 13.5285 -0.024618 13.9567 0.0021079 14.4098C0.0288387 14.8642 0.306806 15.2643 0.718643 15.44L8.21147 18.6457V24.2971C8.21147 24.7343 8.44593 25.1356 8.82243 25.3457C8.99824 25.4438 9.18886 25.4936 9.34038 25.4936C9.5611 25.4936 9.78212 25.4298 9.97529 25.3038L15.4104 21.7456L20.2277 23.807C20.3736 23.8693 20.5279 23.9004 20.6821 23.9004C20.8814 23.9004 21.08 23.849 21.2579 23.7463C21.5733 23.5658 21.7897 23.2454 21.842 22.8809L24.9701 1.37072C25.0787 0.918163 24.8832 0.466697 24.5167 0.208426ZM18.0502 5.93522L8.90537 16.3368L3.82364 14.1758L18.0502 5.93522ZM10.5134 22.1077V19.65L12.7838 20.6214L10.5134 22.1077ZM19.7854 21.0073L11.1537 17.3132L22.1315 4.89008L19.7854 21.0073Z" fill="#90B8A8"/>
</svg>
