<svg width="25" height="25" viewBox="0 0 25 25" fill="none" xmlns="http://www.w3.org/2000/svg">
<path d="M24.5405 12.5C24.5405 19.4052 19.0485 25 12.2702 25C11.0036 25 9.7865 24.8034 8.63864 24.4405C9.13836 23.6089 9.88545 22.248 10.1625 21.1643C10.311 20.5796 10.9245 18.1905 10.9245 18.1905C11.3252 18.9667 12.4929 19.627 13.7347 19.627C17.4356 19.627 20.1024 16.1593 20.1024 11.8498C20.1024 7.72177 16.7924 4.63206 12.5374 4.63206C7.24339 4.63206 4.42817 8.25101 4.42817 12.1976C4.42817 14.0323 5.38802 16.3155 6.91685 17.0413C7.14939 17.1522 7.27308 17.1018 7.32751 16.875C7.36709 16.7036 7.57489 15.8518 7.6689 15.4587C7.69858 15.3327 7.68374 15.2218 7.58478 15.1008C7.08507 14.4708 6.67936 13.3216 6.67936 12.248C6.67936 9.49093 8.7277 6.8246 12.2208 6.8246C15.2339 6.8246 17.3465 8.91633 17.3465 11.9103C17.3465 15.2923 15.6693 17.6361 13.4874 17.6361C12.2851 17.6361 11.3797 16.623 11.6716 15.378C12.0179 13.8911 12.6858 12.2883 12.6858 11.2147C12.6858 10.2571 12.1812 9.45564 11.1323 9.45564C9.9003 9.45564 8.91076 10.751 8.91076 12.4899C8.91076 13.5988 9.27689 14.3448 9.27689 14.3448C9.27689 14.3448 8.06471 19.5766 7.84206 20.5544C7.59468 21.6331 7.69363 23.1552 7.79754 24.1431C3.23578 22.3236 0 17.7974 0 12.5C0 5.59476 5.49192 0 12.2702 0C19.0485 0 24.5405 5.59476 24.5405 12.5Z" fill="#90B8A8"/>
</svg>
