<svg width="43" height="41" viewBox="0 0 43 41" fill="none" xmlns="http://www.w3.org/2000/svg">
<path d="M0 33.9575C0 32.4549 1.19167 31.2409 2.66667 31.2409H7.225C8.25 28.8384 10.6 27.166 13.3333 27.166C16.0667 27.166 18.4167 28.8384 19.4417 31.2409H40C41.475 31.2409 42.6667 32.4549 42.6667 33.9575C42.6667 35.4601 41.475 36.6741 40 36.6741H19.4417C18.4167 39.0766 16.0667 40.749 13.3333 40.749C10.6 40.749 8.25 39.0766 7.225 36.6741H2.66667C1.19167 36.6741 0 35.4601 0 33.9575ZM16 33.9575C16 32.4549 14.8083 31.2409 13.3333 31.2409C11.8583 31.2409 10.6667 32.4549 10.6667 33.9575C10.6667 35.4601 11.8583 36.6741 13.3333 36.6741C14.8083 36.6741 16 35.4601 16 33.9575ZM32 20.3745C32 18.8719 30.8083 17.6579 29.3333 17.6579C27.8583 17.6579 26.6667 18.8719 26.6667 20.3745C26.6667 21.8771 27.8583 23.0911 29.3333 23.0911C30.8083 23.0911 32 21.8771 32 20.3745ZM29.3333 13.583C32.0667 13.583 34.4167 15.2554 35.4417 17.6579H40C41.475 17.6579 42.6667 18.8719 42.6667 20.3745C42.6667 21.8771 41.475 23.0911 40 23.0911H35.4417C34.4167 25.4936 32.0667 27.166 29.3333 27.166C26.6 27.166 24.25 25.4936 23.225 23.0911H2.66667C1.19167 23.0911 0 21.8771 0 20.3745C0 18.8719 1.19167 17.6579 2.66667 17.6579H23.225C24.25 15.2554 26.6 13.583 29.3333 13.583ZM16 4.0749C14.525 4.0749 13.3333 5.28888 13.3333 6.7915C13.3333 8.29412 14.525 9.5081 16 9.5081C17.475 9.5081 18.6667 8.29412 18.6667 6.7915C18.6667 5.28888 17.475 4.0749 16 4.0749ZM22.1083 4.0749H40C41.475 4.0749 42.6667 5.28888 42.6667 6.7915C42.6667 8.29412 41.475 9.5081 40 9.5081H22.1083C21.0833 11.9106 18.7333 13.583 16 13.583C13.2667 13.583 10.9167 11.9106 9.89167 9.5081H2.66667C1.19167 9.5081 0 8.29412 0 6.7915C0 5.28888 1.19167 4.0749 2.66667 4.0749H9.89167C10.9167 1.67241 13.2667 0 16 0C18.7333 0 21.0833 1.67241 22.1083 4.0749Z" fill="#FFAF87"/>
</svg>
