<svg width="23" height="25" viewBox="0 0 23 25" fill="none" xmlns="http://www.w3.org/2000/svg">
<path d="M22.5231 10.2521C20.3521 10.2573 18.2344 9.58668 16.469 8.33512V17.0639C16.4684 18.6806 15.9695 20.2585 15.039 21.5868C14.1085 22.915 12.7907 23.9302 11.2619 24.4967C9.73309 25.0632 8.06611 25.1539 6.48385 24.7566C4.90159 24.3594 3.47948 23.4933 2.40767 22.274C1.33586 21.0547 0.665444 19.5403 0.486059 17.9335C0.306674 16.3266 0.626874 14.7038 1.40384 13.282C2.18081 11.8602 3.37752 10.7073 4.83394 9.97732C6.29037 9.24735 7.93709 8.97517 9.55392 9.19715V13.5874C8.81405 13.3569 8.01957 13.3639 7.28393 13.6073C6.54829 13.8507 5.90911 14.318 5.45766 14.9427C5.00622 15.5673 4.7656 16.3173 4.77017 17.0854C4.77474 17.8536 5.02426 18.6007 5.4831 19.22C5.94194 19.8394 6.58664 20.2993 7.32512 20.534C8.06361 20.7688 8.85812 20.7665 9.59519 20.5274C10.3323 20.2883 10.9742 19.8246 11.4293 19.2026C11.8845 18.5806 12.1295 17.8321 12.1295 17.0639V0H16.469C16.466 0.362953 16.4967 0.725412 16.5607 1.08279C16.7115 1.88059 17.0251 2.63954 17.4822 3.31321C17.9393 3.98688 18.5303 4.56111 19.2192 5.00078C20.1992 5.64259 21.3482 5.98467 22.5231 5.98443V10.2521Z" fill="#90B8A8"/>
</svg>
